<?xml version="1.0" encoding="UTF-8" standalone="no"?>
<!-- Created with Inkscape (http://www.inkscape.org/) -->

<svg
   xmlns:dc="http://purl.org/dc/elements/1.1/"
   xmlns:cc="http://creativecommons.org/ns#"
   xmlns:rdf="http://www.w3.org/1999/02/22-rdf-syntax-ns#"
   xmlns:svg="http://www.w3.org/2000/svg"
   xmlns="http://www.w3.org/2000/svg"
   xmlns:sodipodi="http://sodipodi.sourceforge.net/DTD/sodipodi-0.dtd"
   xmlns:inkscape="http://www.inkscape.org/namespaces/inkscape"
   width="5721.25"
   height="2393.75"
   id="svg3114"
   version="1.1"
   inkscape:version="0.48.4 r9939"
   sodipodi:docname="logo_cloud_black.svg">
  <defs
     id="defs3116" />
  <sodipodi:namedview
     id="base"
     pagecolor="#ffffff"
     bordercolor="#666666"
     borderopacity="1.0"
     inkscape:pageopacity="0.0"
     inkscape:pageshadow="2"
     inkscape:zoom="0.11313708"
     inkscape:cx="3063.4434"
     inkscape:cy="242.23736"
     inkscape:document-units="px"
     inkscape:current-layer="layer1"
     showgrid="false"
     fit-margin-top="0"
     fit-margin-left="0"
     fit-margin-right="0"
     fit-margin-bottom="0"
     inkscape:window-width="1280"
     inkscape:window-height="970"
     inkscape:window-x="0"
     inkscape:window-y="22"
     inkscape:window-maximized="1" />
  <metadata
     id="metadata3119">
    <rdf:RDF>
      <cc:Work
         rdf:about="">
        <dc:format>image/svg+xml</dc:format>
        <dc:type
           rdf:resource="http://purl.org/dc/dcmitype/StillImage" />
        <dc:title></dc:title>
      </cc:Work>
    </rdf:RDF>
  </metadata>
  <g
     inkscape:label="Layer 1"
     inkscape:groupmode="layer"
     id="layer1"
     transform="translate(2192.3647,784.26213)">
    <path
       style="opacity:0.98000003999999996;fill:#ffffff;fill-opacity:1;stroke:none"
       d="M 2843.9375 0 C 2590.0744 0 2372.4684 169.2608 2280.875 409.9375 C 2229.442 391.9697 2174.6228 382.28125 2117.7188 382.28125 C 1964.8632 382.28125 1826.9708 452.2354 1729.5938 564.4375 C 1658.5754 529.4798 1577.6141 509.6875 1491.6562 509.6875 C 1391.7055 509.6875 1298.4951 536.47545 1219.8438 582.71875 C 1194.6378 577.65505 1168.572 575 1141.875 575 C 924.4129 575 748.125 751.2879 748.125 968.75 C 748.125 984.6216 749.08065 1000.2446 750.90625 1015.625 C 662.87065 1066.0251 593.7617 1150.386 558.1875 1252.75 C 533.2523 1248.9113 507.6822 1246.9375 481.625 1246.9375 C 215.6221 1246.9375 0 1454.7614 0 1711.125 C 0 1967.4884 215.6221 2175.3125 481.625 2175.3125 C 590.7819 2175.3125 691.4764 2140.2674 772.25 2081.2812 C 856.9894 2214.1161 1009.1512 2302.7188 1182.8125 2302.7188 C 1352.2464 2302.7188 1501.2083 2218.3485 1587.0625 2090.875 C 1651.3964 2121.579 1723.8779 2138.9063 1800.5312 2138.9062 C 1917.1663 2138.9062 2024.1012 2098.8901 2107.4375 2032.4062 C 2194.5843 2151.8409 2338.678 2229.9062 2501.6875 2229.9062 C 2568.3508 2229.9062 2631.8584 2216.848 2689.5938 2193.25 C 2776.5056 2314.3822 2921.6245 2393.75 3086 2393.75 C 3289.4602 2393.75 3463.4595 2272.1434 3534.0312 2100.25 C 3621.9151 2091.9814 3702.8626 2060.9431 3770.4688 2013.3438 C 3850.0637 2069.3841 3948.1601 2102.5 4054.2812 2102.5 C 4166.1066 2102.5 4269.0371 2065.7165 4350.7812 2004.0938 C 4412.8206 2032.1516 4482.0613 2047.875 4555.125 2047.875 C 4675.2633 2047.875 4785.1347 2005.4539 4869.5 1935.3438 C 4957.8496 2037.483 5090.8615 2102.5 5239.625 2102.5 C 5505.6279 2102.5 5721.25 1894.6759 5721.25 1638.3125 C 5721.25 1381.9489 5505.6279 1174.125 5239.625 1174.125 C 5222.4846 1174.125 5205.5215 1174.9418 5188.8438 1176.625 C 5111.8047 1019.1381 4945.6028 910.15625 4752.9688 910.15625 C 4701.6417 910.15625 4652.2017 917.9189 4605.8125 932.25 C 4521.7278 829.3699 4399.2953 764.53125 4262.9688 764.53125 C 4259.9694 764.53125 4256.9856 764.564 4254 764.625 C 4254.4056 755.5363 4254.625 746.4483 4254.625 737.25 C 4254.625 430.6189 4026.6534 182.03125 3745.4375 182.03125 C 3602.4621 182.03125 3473.2361 246.24915 3380.75 349.71875 C 3277.87 141.48445 3076.0655 7.5791225e-14 2843.9375 0 z M 1553.625 831.4375 C 1558.2499 831.42576 1562.1534 831.50784 1565.2188 831.625 C 1568.2211 831.90782 1567.4983 834.50809 1565.375 834.6875 C 1565.375 834.6875 1504.8252 841.22045 1476.2188 904.40625 C 1522.3596 921.26335 1584.6895 966.79112 1605.9062 984.375 C 1669.511 1037.0886 1655.9703 1089.9696 1624.4688 1125.4062 C 1580.3665 1175.0178 1479.0152 1161.7784 1425.3438 1122.7188 C 1371.5228 1083.5503 1339.7057 1001.5453 1361.375 933.5625 C 1223.6788 889.66905 1019.704 1055.6895 955.28125 1227.7188 C 893.75555 1353.4587 920.541 1492.5983 976.0625 1575.875 C 1019.7902 1641.4621 1122.1937 1686.5194 1267.7188 1582.875 C 1423.0532 1447.8537 1616.8014 1308.2473 1717.125 1361.8438 C 1767.0448 1395.269 1778.5419 1397.3642 1854 1419.4375 C 1881.1549 1389.1393 1924.1243 1306.3184 1960.9375 1208.375 C 2016.4985 1060.5521 2128.5726 939.47905 2284.375 976.46875 C 2367.9198 996.3035 2368.174 1150.1363 2334.5 1229.125 C 2270.6054 1379.0019 2067.775 1491.4351 1922.7188 1492.5 C 1870.2235 1566.6772 1857.8099 1578.9188 1860.6562 1614.4375 C 1868.7134 1698.7701 2010.1421 1606.6553 2127.25 1527.7812 C 2178.6567 1463.3407 2203.4582 1440.3643 2222.875 1425.3125 C 2256.3332 1399.7527 2300.0365 1438.57 2288.4688 1467.7188 C 2277.7913 1493.7838 2224.6875 1531.4688 2224.6875 1531.4688 C 2224.6875 1531.4687 2181.9814 1582.6626 2172.7188 1613.0312 C 2156.3881 1666.5722 2195.6725 1680.1201 2267.7188 1613.8125 C 2376.5585 1513.6421 2390.8125 1478.875 2390.8125 1478.875 C 2396.6463 1441.4058 2425.7177 1459.7543 2422.2188 1476.6875 C 2451.5835 1448.8685 2466.736 1453.5965 2482.8125 1455.3125 C 2559.7468 1463.5245 2517.4455 1568.3327 2507.0312 1590.9688 C 2488.3165 1626.357 2505.756 1730.142 2660.8125 1602.3125 C 2789.2636 1496.4166 2676.2882 1607.5892 2647.8125 1634.3125 C 2582.8124 1695.3125 2363.9064 1786 2427.9062 1621 C 2491.9062 1456 2342.6562 1690.1562 2342.6562 1690.1562 C 2311.7047 1739.1714 2277.2822 1728.5014 2286.4688 1684.75 C 2289.0837 1672.2962 2326.375 1610.2812 2326.375 1610.2812 C 2326.5323 1609.9306 2276 1657.5 2276 1657.5 C 2225.5568 1707.1987 2108.1779 1752.8521 2095.25 1707.375 C 2085.9971 1674.8251 2111.0625 1608.3438 2111.0625 1608.3438 C 2111.0625 1608.3436 1971.2246 1694.9591 1910 1716.8438 C 1783.0561 1762.2198 1710.7696 1703.812 1759.6562 1584.5312 C 1773.3162 1555.4978 1789.638 1516.8187 1815.5625 1479.5625 C 1759.485 1462.0432 1732.6779 1461.3911 1721.6875 1445.125 C 1721.6875 1445.125 1750.7789 1511.7758 1687.7188 1598.2812 C 1612.3297 1701.6992 1521.2854 1751.5037 1437.9375 1713.3438 C 1337.3748 1667.3021 1405.9688 1549.5938 1405.9688 1549.5938 L 1285.6875 1659.125 C 1163.9814 1774.1182 1011.4994 1732.2366 903.09375 1646.4062 C 790.88815 1557.5673 751.5987 1371.5447 833.0625 1183.4688 C 925.3243 1003.7458 1137.1863 805.06566 1400.5938 879.59375 C 1454.1225 836.99472 1521.2506 831.51967 1553.625 831.4375 z M 1453.1562 959.46875 C 1432.6917 1046.2212 1492.3471 1110.8229 1544.1562 1077.0312 C 1606.9446 1036.0787 1513.2209 986.51544 1453.1562 959.46875 z M 3497.8125 1017 C 3507.0519 1017.0047 3511.6015 1025.1203 3505.6562 1044.9375 C 3496.7503 1071.6557 3417.2206 1237.5545 3373.7188 1433.5312 C 3398.4556 1435.3124 3422.6117 1437.563 3446.0312 1440.2812 C 3489.7697 1445.971 3504.9427 1494.4239 3444.1875 1483.6875 C 3426.9637 1480.6438 3398.9086 1478.6199 3364.6875 1477.4062 C 3357.4692 1515.7717 3351.8816 1554.9392 3348.6562 1594.1562 C 3343.1264 1661.3957 3368.9735 1654.9293 3434.125 1604.3438 L 3572.0312 1484.0625 C 3643.622 1421.9975 3702.1698 1360.5193 3852.4375 1357.8438 C 3922.4422 1355.349 3954.8438 1240.5312 3954.8438 1240.5312 C 3968.6387 1201.3829 4009.6477 1118.4657 4031.875 1048.2188 C 4051.9267 994.3203 4132.9444 1020.9572 4120.4062 1074.6875 C 4099.8595 1123.892 3942.3814 1419.9858 3895.875 1567.7188 C 3864.5332 1667.2797 3898.3163 1688.8068 4027.0312 1551.8438 C 4027.0312 1551.8438 4072.6688 1509.3793 4072.7812 1509.2812 C 4144.3718 1447.2164 4260.7557 1345.5665 4364.1875 1371.1875 C 4442.9414 1378.532 4437.7885 1465.2535 4410.3125 1520.7812 C 4361.6722 1620.3714 4434.9415 1695.1144 4491.2188 1610.7188 C 4508.2992 1592.5619 4541.5601 1543.7537 4548.6875 1530.8125 C 4579.4974 1482.3909 4560.6025 1460.9448 4559.5625 1404.0938 C 4557.8163 1358.9761 4593.7221 1357.7079 4607.9688 1365.2812 C 4625.1669 1377.7892 4628.0727 1402.9651 4627.0312 1419.8125 C 4673.0582 1382.196 4761.808 1327.9796 4774.9062 1456.1562 C 4774.9063 1456.1563 4892.9018 1300.8477 4960.25 1450.5938 C 4990.5134 1517.8832 4919.125 1676.375 4919.125 1676.375 C 4964.3904 1646.8515 5009.7131 1504.3567 5028.625 1450.7812 L 5049.125 1398.625 C 5050.1377 1396.1337 5051.613 1391.9674 5058.4062 1393.8125 L 5105.0938 1401.25 C 5105.0938 1401.25 5116.1328 1401.926 5114.7188 1410.6562 C 5112.0188 1427.3246 5105.3365 1458.484 5108.4062 1481.2812 C 5115.2435 1529.7233 5207.0146 1523.2444 5266.0625 1572.2188 C 5322.7905 1618.468 5352.7967 1735.9708 5161.625 1725.9688 C 5186.276 1767.642 5210.2221 1795.0498 5274.5312 1757.0625 C 5203.7049 1808.5628 5174.6971 1770.3399 5146.875 1725 C 5137.2181 1724.1992 5127.0502 1723.0507 5116.2812 1721.5938 C 5010.5942 1707.978 5013.3149 1575.0361 5093.7188 1634.2188 C 5115.0862 1651.0075 5130.0527 1672.4841 5142.75 1693.5625 C 5163.1203 1688.7665 5203.1417 1695.2594 5220.25 1664.9688 C 5248.9782 1614.1046 5134.4004 1582.8457 5084.3125 1546.2812 C 5051.7276 1522.4942 5052 1466.3125 5052 1466.3125 C 5052 1466.3125 5007.0559 1673.6594 4938.0625 1729.7812 C 4917.6705 1747.0655 4825.7406 1777.1699 4848.6562 1696.5 C 4862.3897 1639.87 4876.3529 1612.6764 4888.6875 1571.0312 C 4910.4133 1473.4982 4823.8667 1492.4823 4804.3125 1523.0625 C 4778.0691 1564.1039 4744.7915 1567.8888 4729.0938 1511.7812 C 4716.6372 1467.259 4676.9569 1453.4616 4635.9688 1518.7188 C 4605.3995 1568.3239 4613.3345 1615.0409 4602 1683.8125 C 4597.6039 1750.999 4497.7557 1764.2338 4524.8125 1645.1562 C 4502.905 1668.9244 4472.9021 1692.5122 4431.875 1711.4062 C 4295.1996 1774.3491 4298.8125 1670.0625 4298.8125 1670.0625 C 4299.0832 1656.8399 4301.9576 1642.2822 4306.8125 1626.9688 C 4241.2453 1686.6222 4162.21 1729.2039 4104.8125 1727.9062 C 4061.649 1726.9305 4014.2252 1686.2731 4040.6562 1613.5938 C 3999.4353 1666.0812 3991.1044 1694.1383 3932.9062 1728.8438 C 3796.2304 1791.7864 3780.1875 1707.4688 3780.1875 1707.4688 C 3780.4584 1694.2461 3783.3327 1679.6885 3788.1875 1664.375 C 3722.6203 1724.0283 3651.8185 1749.5938 3594.4062 1749.5938 C 3511.6054 1746.427 3484.1529 1678.1904 3530.75 1603.1875 L 3444.875 1667.1562 C 3366.3719 1733.1856 3165.7824 1819.9899 3238 1616.25 C 3256.6518 1563.6294 3272.6238 1518.592 3287.75 1476 C 3246.8942 1475.8091 3202.8642 1476.3074 3160.1875 1477.3125 C 3107.2351 1544.6306 2962.1161 1731.9134 2840.9688 1735.875 C 2754.5037 1738.7025 2716.8362 1660.6432 2733.0938 1574.4688 C 2738.8528 1543.9415 2776.6716 1478.9771 2824.5938 1480.0625 C 2764.5215 1529.3202 2759.513 1636.3343 2822.125 1642.4062 C 2873.7704 1647.4148 2934.1845 1605.2951 2985.2188 1553.9688 C 3007.8298 1530.9437 3031.397 1506.4895 3055.6562 1480.9062 C 3011.56 1482.9681 2975.1066 1485.515 2954.25 1488.1875 C 2897.9014 1495.4077 2927.7698 1455.8107 2962.4375 1449.7188 C 3008.2501 1442.7239 3054.1487 1437.6384 3099.5625 1434.2188 C 3212.1769 1313.7003 3337.129 1174.1289 3456.875 1043.0938 C 3470.8688 1027.4073 3487.3411 1016.99 3497.8125 1017 z M 2200.3125 1081.3125 C 2195.2178 1081.3914 2190.3493 1082.0798 2186.0312 1083.375 C 2058.5179 1121.6219 2009.1457 1329.3388 1961.5312 1413.6875 C 2183.7916 1369.0644 2281.4952 1247.9194 2252.7188 1110.875 C 2248.7044 1091.7573 2222.3897 1080.9705 2200.3125 1081.3125 z M 3375.9688 1228.125 C 3375.9686 1228.125 3341.6725 1260.3282 3199.7188 1429.3125 C 3235.1892 1428.5227 3270.1036 1428.7459 3304.1562 1429.875 C 3349.8632 1301.2659 3375.9688 1228.125 3375.9688 1228.125 z M 2346.9688 1308.9062 C 2358.3389 1308.7769 2368.581 1312.5108 2375.5938 1320.3125 C 2391.6226 1338.1449 2384.69 1370.5163 2360.0938 1392.625 C 2335.4974 1414.7337 2302.5602 1418.2074 2286.5312 1400.375 C 2270.5024 1382.5426 2277.435 1350.1401 2302.0312 1328.0312 C 2315.8667 1315.5952 2332.3499 1309.0727 2346.9688 1308.9062 z M 3809.5312 1419.125 C 3752.1319 1419.125 3664.8855 1476.0806 3614.6562 1546.375 C 3564.4271 1616.6694 3597.2743 1650.2863 3614 1659.0312 C 3638.5317 1679.4852 3750.8334 1616.6694 3801.0625 1546.375 C 3851.2916 1476.0806 3866.9307 1419.125 3809.5312 1419.125 z M 1605.8125 1445.875 C 1576.1592 1446.5328 1540.8136 1474.3353 1521.0625 1501.25 C 1503.7223 1524.8793 1470.0196 1584.0961 1497.75 1607.4062 C 1533.6942 1637.6213 1602.4808 1593.3247 1628.0938 1553.9688 C 1646.9873 1524.9375 1662.1787 1469.1892 1625.1875 1450.0938 C 1619.2159 1447.0111 1612.6556 1445.7232 1605.8125 1445.875 z M 4283.2188 1458.125 C 4282.5055 1458.1181 4281.7795 1458.1383 4281.0625 1458.1562 C 4234.3525 1459.3287 4180.1434 1511.9623 4165.0625 1533.6562 C 4143.0571 1565.3115 4129.8563 1609.4923 4151.8438 1622.2812 C 4186.5584 1642.4729 4243.8292 1589.0173 4263.9062 1565.6562 C 4289.5812 1535.7818 4342.2036 1472.9793 4297.8438 1460.2188 C 4293.0978 1458.8535 4288.2117 1458.1736 4283.2188 1458.125 z M 5064 1643.4375 C 5045.2308 1643.2789 5053.4406 1673.4027 5080.4688 1687.3438 C 5090.6852 1692.6716 5107.2122 1697.3714 5123.25 1694.8125 C 5111.0429 1676.0867 5103.4206 1660.6145 5085.625 1651.5625 C 5075.8434 1645.863 5068.7844 1643.4775 5064 1643.4375 z "
       transform="translate(-2192.3647,-784.26213)"
       id="path2996" />
  </g>
</svg>
